#N canvas 323 123 427 374 10;
#X obj 167 140 audioSys;
#X obj 148 184 output~;
#X obj 140 72 noise~;
#X obj 139 94 bp~ 1000 0.5;
#X obj 230 73 noise~;
#X obj 231 92 bp~ 500 0.5;
#X msg 49 130 pitch 90;
#X msg 49 104 autoWobble 0;
#X msg 48 77 loudness 0.5;
#X obj 247 136 tabreceive~ Tract;
#X connect 0 0 1 0;
#X connect 0 0 1 1;
#X connect 2 0 3 0;
#X connect 3 0 0 0;
#X connect 4 0 5 0;
#X connect 5 0 0 1;
#X connect 6 0 0 0;
#X connect 7 0 0 0;
#X connect 8 0 0 0;
#X connect 9 0 0 2;
