#N canvas 351 0 804 545 10;
#X obj 181 58 bng 15 250 50 0 empty empty empty 17 7 0 10 -262144 -1
-1;
#X obj 286 176 textfile;
#X msg 290 81 rewind;
#X msg 129 134 clear;
#X msg 181 134 read \$1 cr;
#X obj 299 110 bng 15 250 50 0 empty empty empty 17 7 0 10 -262144
-1 -1;
#X obj 290 58 bng 15 250 50 0 empty empty empty 17 7 0 10 -262144 -1
-1;
#X obj 181 103 openpanel;
#X text 143 32 Get PFS File;
#X text 264 32 Process File;
#X obj 309 137 metro 100;
#X msg 336 105 stop;
#X msg 52 251 pitch \$1 \, loudness \$2 \, fricative \$3 \, dxy \$4
\, nasal \$5 \, autoWobble \$6 \, alwaysVoiced \$7;
#X obj 427 112 until;
#X obj 465 140 + 1;
#X obj 509 140 sel 0;
#X obj 518 172 + 8;
#X obj 427 140 f 8;
#X msg 423 201 adddollar \$1;
#X msg 236 354 set;
#X msg 255 379 addsemi;
#X msg 278 403 add2 Tract;
#X obj 225 386 bng 15 250 50 0 empty empty empty 17 7 0 10 -262144
-1 -1;
#X obj 246 406 bng 15 250 50 0 empty empty empty 17 7 0 10 -262144
-1 -1;
#X msg 190 436 \; Tract 0.6 0.6 0.6 0.6 0.6 0.6 0.6 1.1 1.1 1.1 1.56528
1.41368 1.26005 1.11233 0.974151 0.848921 0.739723 0.649246 0.579716
0.532848 0.509793 0.511121 0.536799 0.586193 0.658089 0.750715 0.861791
0.988582 1.12797 1.27651 1.43056 1.58632 1.73995 1.88767 2.02585 2.15108
2.26028 2.29971 2.23623 1.5 1.5 1.5 1.5 1.5 \;;
#X obj 56 304 send pa;
#X obj 248 322 loadbang;
#X obj 122 312 print;
#X obj 465 166 mod 52;
#X msg 403 235 add \$8 \$9 \$10 \$11 \$12 \$13 \$14 \$15 \$16 \$17
\$18 \$19 \$20 \$21 \$22 \$23 \$24 \$25 \$26 \$27 \$28 \$29 \$30 \$31
\$32 \$33 \$34 \$35 \$36 \$37 \$38 \$39 \$40 \$41 \$42 \$43 \$44 \$45
\$46 \$47 \$48 \$49 \$50 \$51;
#X obj 428 76 bng 15 250 50 0 empty empty empty 17 7 0 10 -262144 -1
-1;
#X msg 574 199 set add;
#X obj 369 417 bng 15 250 50 0 empty empty empty 17 7 0 10 -262144
-1 -1;
#X msg 417 326 add 0.6 0.6 0.6 0.6 0.6 0.6 0.6 1.1 1.1 1.1 1.22875
1.10699 1.01223 0.929476 0.860772 0.807807 0.771886 0.753894 0.754273
0.773015 0.809657 0.863298 0.932617 1.01591 1.11112 1.2159 1.32768
1.44371 1.56112 1.67702 1.78857 1.89301 1.98777 2.07052 2.13923 2.1474
1.8562 1.31957 0.785572 0.476338 0.451988 0.478964 0.671439 0.980243
\;;
#X obj 327 290 bang;
#X msg 347 340 set add;
#X connect 0 0 3 0;
#X connect 0 0 7 0;
#X connect 1 0 12 0;
#X connect 1 0 19 0;
#X connect 1 0 29 0;
#X connect 2 0 1 0;
#X connect 2 0 5 0;
#X connect 3 0 1 0;
#X connect 4 0 1 0;
#X connect 5 0 10 0;
#X connect 6 0 2 0;
#X connect 7 0 4 0;
#X connect 10 0 1 0;
#X connect 11 0 10 0;
#X connect 12 0 27 0;
#X connect 13 0 17 0;
#X connect 14 0 28 0;
#X connect 15 0 13 1;
#X connect 15 0 16 0;
#X connect 15 1 17 1;
#X connect 16 0 17 1;
#X connect 17 0 14 0;
#X connect 17 0 18 0;
#X connect 18 0 29 0;
#X connect 19 0 24 0;
#X connect 19 0 22 0;
#X connect 20 0 24 0;
#X connect 20 0 23 0;
#X connect 21 0 24 0;
#X connect 21 0 32 0;
#X connect 22 0 20 0;
#X connect 23 0 21 0;
#X connect 26 0 19 0;
#X connect 28 0 15 0;
#X connect 29 0 33 0;
#X connect 30 0 13 0;
#X connect 31 0 29 0;
#X connect 32 0 33 0;
#X connect 33 0 24 0;
#X connect 33 0 34 0;
#X connect 34 0 35 0;
#X connect 34 0 24 0;
#X connect 35 0 33 0;
